<?xml version="1.0" encoding="UTF-8" standalone="no"?><!DOCTYPE svg PUBLIC "-//W3C//DTD SVG 1.1//EN" "http://www.w3.org/Graphics/SVG/1.1/DTD/svg11.dtd"><svg width="100%" height="100%" viewBox="0 0 4500 4500" version="1.1" xmlns="http://www.w3.org/2000/svg" xmlns:xlink="http://www.w3.org/1999/xlink" xml:space="preserve" xmlns:serif="http://www.serif.com/" style="fill-rule:evenodd;clip-rule:evenodd;stroke-linejoin:round;stroke-miterlimit:2;"><path d="M2242.97,4430.2c-596.024,-0.629 -761.632,-81.307 -802.923,-110.34c-41.452,-29.146 -21.452,-96.492 -14.544,-165.575c37.555,-375.553 17.856,-829.913 -13.769,-1084.89c-31.626,-254.981 -108.713,-606.815 -166.034,-920.153c-57.321,-313.337 -88.947,-902.609 -88.947,-1161.54c-0,-258.934 51.002,-674.112 57.738,-739.918c-10.881,-16.062 -14.075,-34.299 19.69,-56.996c93.267,-62.697 508.562,-120.993 1015.82,-120.993l11.872,0.011c501.846,0.899 911.409,58.774 1003.95,120.982c33.765,22.697 30.571,40.934 19.69,56.996c6.736,65.806 57.738,480.984 57.738,739.918c0,258.934 -31.626,848.206 -88.947,1161.54c-57.321,313.338 -134.408,665.172 -166.034,920.153c-31.625,254.981 -51.324,709.341 -13.769,1084.89c6.908,69.083 26.908,136.429 -14.544,165.575c-41.453,29.146 -208.198,110.344 -809.955,110.344l-7.032,-0.004Z"/></svg>